<svg xmlns="http://www.w3.org/2000/svg" width="120" height="35" viewBox="0 0 120 35" fill="none"><g clip-path="url(#clip0_247_474)"><path d="M11.123 0.288574H0V34.3342H11.123V0.288574Z" fill="#ffffff"></path><path d="M58.3469 34.6309L39.5371 17.3134L58.3469 0V34.6309Z" fill="#ffffff"></path><path d="M34.4954 0C29.8949 0 25.4829 1.82431 22.2299 5.07158C18.9768 8.31885 17.1493 12.7231 17.1493 17.3154C17.1493 21.9078 18.9768 26.312 22.2299 29.5593C25.4829 32.8066 29.8949 34.6309 34.4954 34.6309V0Z" fill="#ffffff"></path><path d="M69.8334 4.19824H68.4899V10.3026H69.8334V4.19824Z" fill="white"></path><path d="M72.3526 4.19824L74.9054 8.29493H74.9217V4.19824H76.1797V10.3026H74.8362L72.2915 6.21408H72.2753V10.3026H71.0131V4.19824H72.3526Z" fill="white"></path><path d="M78.7007 4.19824L81.2535 8.29493H81.2697V4.19824H82.5278V10.3026H81.1842L78.6396 6.21408H78.6233V10.3026H77.3612V4.19824H78.7007Z" fill="white"></path><path d="M83.6522 6.00672C83.7804 5.63024 83.9809 5.28235 84.2425 4.98255C84.5051 4.68868 84.8289 4.45566 85.1912 4.29977C86.0028 3.96909 86.9119 3.96909 87.7236 4.29977C88.0827 4.45701 88.4035 4.68993 88.6641 4.98255C88.9255 5.28254 89.126 5.63037 89.2544 6.00672C89.3952 6.41597 89.4654 6.84611 89.462 7.27881C89.466 7.70193 89.3972 8.1226 89.2585 8.52245C89.1295 8.89247 88.9289 9.23356 88.6681 9.5263C88.4065 9.8147 88.0858 10.0434 87.7276 10.1969C86.915 10.5224 86.0079 10.5224 85.1952 10.1969C84.834 10.0448 84.5103 9.81595 84.2466 9.5263C83.9854 9.23381 83.7848 8.89265 83.6563 8.52245C83.5168 8.12278 83.448 7.70199 83.4527 7.27881C83.4481 6.84767 83.5169 6.41889 83.6563 6.01079M84.8777 8.04288C84.9345 8.27633 85.0324 8.49786 85.1667 8.6972C85.2981 8.89146 85.474 9.05169 85.6797 9.16459C85.9205 9.27994 86.1842 9.33982 86.4513 9.33982C86.7183 9.33982 86.982 9.27994 87.2228 9.16459C87.4286 9.05182 87.6045 8.89156 87.7358 8.6972C87.8701 8.49786 87.968 8.27633 88.0249 8.04288C88.0848 7.79812 88.1149 7.54703 88.1144 7.29507C88.1149 7.03372 88.0848 6.7732 88.0249 6.51881C87.9689 6.27999 87.8711 6.05296 87.7358 5.84822C87.6056 5.65185 87.4296 5.49004 87.2228 5.37677C86.9821 5.26114 86.7184 5.2011 86.4513 5.2011C86.1841 5.2011 85.9204 5.26114 85.6797 5.37677C85.473 5.49018 85.297 5.65196 85.1667 5.84822C85.0312 6.05279 84.9333 6.27988 84.8777 6.51881C84.8173 6.77314 84.7872 7.0337 84.7881 7.29507C84.7872 7.54705 84.8173 7.79819 84.8777 8.04288" fill="white"></path><path d="M91.7044 10.3026L89.7257 4.19824H91.1059L92.4657 8.49002H92.4861L93.8622 4.19824H95.2506L93.219 10.3026H91.7044Z" fill="white"></path><path d="M98.1683 4.19824L100.456 10.2945H99.06L98.5958 8.93301H96.3077L95.8273 10.2945H94.4756L96.7881 4.19824H98.1683ZM98.2457 7.94542L97.4762 5.70605L96.6619 7.94542H98.2457Z" fill="white"></path><path d="M99.7216 5.32808V4.19824H104.733V5.32808H102.901V10.3026H101.558V5.32808H99.7216Z" fill="white"></path><path d="M107.062 4.19824H105.718V10.3026H107.062V4.19824Z" fill="white"></path><path d="M108.19 6.00672C108.318 5.63024 108.519 5.28235 108.78 4.98255C109.043 4.68868 109.367 4.45566 109.729 4.29977C110.54 3.96909 111.45 3.96909 112.261 4.29977C112.62 4.45701 112.941 4.68993 113.202 4.98255C113.463 5.28254 113.664 5.63037 113.792 6.00672C113.931 6.41492 114 6.84363 113.996 7.27474C114 7.69786 113.931 8.11853 113.792 8.51838C113.663 8.8884 113.463 9.22949 113.202 9.52223C112.94 9.81063 112.619 10.0394 112.261 10.1928C111.449 10.5184 110.541 10.5184 109.729 10.1928C109.368 10.0407 109.044 9.81188 108.78 9.52223C108.519 9.22975 108.318 8.88858 108.19 8.51838C108.049 8.11895 107.979 7.69816 107.982 7.27474C107.979 6.84337 108.049 6.41458 108.19 6.00672ZM109.411 8.03881C109.467 8.27248 109.565 8.49415 109.7 8.69315C109.837 8.88442 110.017 9.04047 110.226 9.14833C110.466 9.26368 110.73 9.32356 110.997 9.32356C111.264 9.32356 111.528 9.26368 111.769 9.14833C111.975 9.03569 112.15 8.87542 112.282 8.68095C112.417 8.48195 112.514 8.26029 112.571 8.02661C112.634 7.78226 112.666 7.53112 112.668 7.27881C112.669 7.01744 112.639 6.75688 112.579 6.50255C112.524 6.26343 112.426 6.03624 112.29 5.83196C112.16 5.63559 111.983 5.47378 111.777 5.36051C111.536 5.24488 111.272 5.18484 111.005 5.18484C110.738 5.18484 110.474 5.24488 110.234 5.36051C110.027 5.47392 109.851 5.63569 109.721 5.83196C109.585 6.03624 109.487 6.26343 109.432 6.50255C109.371 6.75687 109.341 7.01743 109.342 7.27881C109.341 7.53079 109.371 7.78193 109.432 8.02661" fill="white"></path><path d="M116.169 4.19824L118.726 8.29493H118.742V4.19824H120V10.3026H118.657L116.112 6.21408H116.092V10.3026H114.834V4.19824H116.169Z" fill="white"></path><path d="M72.4143 15.7448C72.3335 15.6163 72.2317 15.5022 72.113 15.4075C71.9913 15.3089 71.8536 15.232 71.7059 15.1799C71.553 15.1253 71.3918 15.0978 71.2295 15.0986C70.9623 15.0905 70.6975 15.1507 70.46 15.2733C70.2533 15.3867 70.0773 15.5485 69.947 15.7448C69.8109 15.9491 69.713 16.1763 69.658 16.4154C69.5972 16.671 69.5672 16.933 69.5684 17.1957C69.5675 17.4477 69.5976 17.6988 69.658 17.9435C69.7148 18.177 69.8127 18.3985 69.947 18.5978C70.0782 18.7923 70.2541 18.9526 70.46 19.0652C70.6975 19.1879 70.9623 19.248 71.2295 19.24C71.4081 19.2501 71.5868 19.2215 71.7534 19.1563C71.9199 19.0911 72.0704 18.9907 72.1944 18.862C72.4311 18.5823 72.5735 18.2354 72.6016 17.8704H73.9044C73.8771 18.2285 73.7875 18.5792 73.6398 18.9067C73.5049 19.2041 73.3126 19.472 73.0739 19.6952C72.8385 19.9133 72.5616 20.0819 72.2596 20.191C71.9275 20.3079 71.5775 20.3656 71.2254 20.3617C70.7911 20.3684 70.36 20.2854 69.9593 20.1178C69.5996 19.965 69.2774 19.7362 69.0147 19.4473C68.7534 19.1548 68.5528 18.8136 68.4243 18.4434C68.2856 18.0436 68.2168 17.6229 68.2208 17.1998C68.2165 16.7687 68.2854 16.3399 68.4243 15.9317C68.5526 15.5565 68.7532 15.21 69.0147 14.9116C69.2759 14.618 69.5983 14.3849 69.9593 14.2288C70.6641 13.9365 71.4494 13.9005 72.1782 14.1272C72.4713 14.214 72.747 14.3516 72.9924 14.5337C73.2317 14.7213 73.4311 14.9549 73.5787 15.2205C73.7379 15.5106 73.8362 15.8301 73.8678 16.1593H72.5649C72.5411 16.0149 72.4885 15.8767 72.4102 15.7529" fill="white"></path><path d="M79.4076 14.1147V15.2405H76.179V16.5492H79.143V17.5937H76.179V19.0893H79.4768V20.2191H74.8354V14.1147H79.4076Z" fill="white"></path><path d="M81.903 14.1147L84.4558 18.2114H84.4721V14.1147H85.7301V20.2191H84.3866L81.842 16.1306H81.8257V20.2191H80.5676V14.1147H81.903Z" fill="white"></path><path d="M86.8734 15.2405V14.1147H91.8852V15.2405H90.0531V20.2191H88.7055V15.2405H86.8734Z" fill="white"></path><path d="M96.3816 14.1149C96.6349 14.1116 96.8865 14.1571 97.1226 14.249C97.3333 14.3311 97.5257 14.454 97.6885 14.6108C97.8435 14.7632 97.9654 14.9458 98.0468 15.1472C98.1299 15.3553 98.1714 15.5776 98.1689 15.8016C98.1767 16.1265 98.098 16.4476 97.9409 16.7323C97.7694 17.0099 97.5079 17.2207 97.1999 17.3297C97.3495 17.3694 97.4885 17.4416 97.6071 17.541C97.7149 17.6351 97.8045 17.748 97.8717 17.8743C97.9408 18.002 97.9915 18.1388 98.0223 18.2807C98.0542 18.4335 98.076 18.5883 98.0875 18.744C98.0875 18.8416 98.0875 18.9553 98.0875 19.0854C98.0875 19.2155 98.0875 19.3496 98.116 19.4918C98.1288 19.6288 98.1519 19.7647 98.1852 19.8982C98.2121 20.0107 98.2605 20.117 98.3277 20.2112H96.9841C96.9036 19.9891 96.8569 19.7562 96.8457 19.5203C96.8294 19.2493 96.8036 18.9933 96.7684 18.7522C96.7484 18.4926 96.6456 18.2462 96.4752 18.049C96.2713 17.8815 96.0094 17.8012 95.7464 17.8255H94.4029V20.2112H93.0593V14.1149H96.3816V14.1149ZM95.9012 16.8786C96.1504 16.8985 96.3982 16.8261 96.5974 16.6753C96.6814 16.5872 96.7456 16.4821 96.7856 16.3671C96.8257 16.2522 96.8406 16.13 96.8294 16.0088C96.8403 15.8907 96.8252 15.7717 96.7851 15.6601C96.745 15.5484 96.6809 15.4469 96.5974 15.3626C96.3971 15.2143 96.1497 15.1435 95.9012 15.1635H94.4273V16.8826H95.9012V16.8786Z" fill="white"></path><path d="M103.919 14.1147V15.2405H100.686V16.5492H103.65V17.5937H100.686V19.0893H103.988V20.2191H99.3426V14.1147H103.919Z" fill="white"></path><path d="M69.8334 24.3364V26.8684L72.2233 24.3364H73.9007L71.5108 26.7465L74.1328 30.4408H72.4473L70.6029 27.6975L69.8334 28.4738V30.4408H68.4899V24.3364H69.8334Z" fill="white"></path><path d="M74.3037 26.1449C74.4316 25.7684 74.6322 25.4204 74.894 25.1207C75.1566 24.8269 75.4804 24.5938 75.8427 24.438C76.6543 24.1073 77.5634 24.1073 78.3751 24.438C78.7341 24.5954 79.0549 24.8283 79.3155 25.1207C79.5774 25.4204 79.7779 25.7684 79.9059 26.1449C80.0471 26.5541 80.1173 26.9843 80.1135 27.417C80.117 27.8404 80.0467 28.2612 79.9059 28.6606C79.7774 29.0309 79.5768 29.3721 79.3155 29.6645C79.0536 29.9525 78.7329 30.1812 78.3751 30.3351C77.5623 30.6602 76.6554 30.6602 75.8427 30.3351C75.4815 30.1827 75.1579 29.9539 74.894 29.6645C74.6328 29.3721 74.4321 29.0309 74.3037 28.6606C74.165 28.2608 74.0961 27.8401 74.1001 27.417C74.0959 26.9859 74.1647 26.5572 74.3037 26.149M75.5251 28.1811C75.5801 28.4144 75.6766 28.6361 75.8101 28.8354C75.941 29.0301 76.1169 29.1904 76.3231 29.3028C76.5638 29.4184 76.8275 29.4785 77.0946 29.4785C77.3617 29.4785 77.6254 29.4184 77.8661 29.3028C78.0723 29.1904 78.2482 29.0301 78.3791 28.8354C78.5126 28.6361 78.6091 28.4144 78.6641 28.1811C78.7245 27.9364 78.7546 27.6852 78.7537 27.4333C78.7549 27.1705 78.7248 26.9086 78.6641 26.6529C78.6104 26.4141 78.5138 26.1869 78.3791 25.9823C78.2491 25.7859 78.073 25.624 77.8661 25.5109C77.6254 25.3953 77.3617 25.3352 77.0946 25.3352C76.8275 25.3352 76.5638 25.3953 76.3231 25.5109C76.1163 25.6242 75.9402 25.786 75.8101 25.9823C75.6754 26.1869 75.5788 26.4141 75.5251 26.6529C75.4644 26.9086 75.4343 27.1705 75.4355 27.4333C75.4346 27.6852 75.4647 27.9364 75.5251 28.1811" fill="white"></path><path d="M82.3627 28.937C82.4325 29.0743 82.5345 29.1928 82.6599 29.2824C82.7901 29.3741 82.9365 29.4402 83.0914 29.4775C83.259 29.5209 83.4314 29.5427 83.6044 29.5425C83.7339 29.5427 83.8632 29.5332 83.9912 29.5141C84.1252 29.4959 84.2556 29.4575 84.378 29.4003C84.4938 29.3454 84.5955 29.2648 84.6752 29.1646C84.758 29.0548 84.7997 28.9197 84.7933 28.7825C84.7968 28.7075 84.7845 28.6325 84.7571 28.5625C84.7298 28.4925 84.688 28.429 84.6345 28.3761C84.5167 28.2652 84.3784 28.1783 84.2274 28.1201C84.0379 28.0465 83.8433 27.9868 83.6451 27.9412C83.428 27.8898 83.2082 27.8329 82.9856 27.7705C82.759 27.7134 82.536 27.6428 82.3179 27.5592C82.109 27.4814 81.9128 27.3732 81.7357 27.2381C81.5665 27.105 81.4277 26.9373 81.3285 26.7464C81.2168 26.5248 81.1623 26.279 81.1698 26.0311C81.1627 25.7473 81.2316 25.4667 81.3692 25.2182C81.5005 24.9903 81.6797 24.7934 81.8945 24.6411C82.1177 24.4844 82.3673 24.3687 82.6314 24.2997C82.8968 24.2278 83.1706 24.1909 83.4457 24.19C83.7555 24.1884 84.0644 24.2239 84.3658 24.2957C84.6471 24.3606 84.9137 24.4778 85.1516 24.6411C85.3789 24.7987 85.5659 25.0075 85.6971 25.2508C85.838 25.5302 85.9066 25.8403 85.8966 26.153H84.5734C84.5693 25.9948 84.5303 25.8394 84.4594 25.6978C84.3985 25.5822 84.3088 25.4842 84.1989 25.4133C84.0838 25.3425 83.9569 25.293 83.8243 25.267C83.6741 25.2373 83.5214 25.2223 83.3683 25.2223C83.2589 25.2222 83.1498 25.2331 83.0426 25.2548C82.9385 25.2759 82.8391 25.3159 82.7494 25.3727C82.662 25.4285 82.5871 25.5018 82.5296 25.5881C82.4692 25.6855 82.4394 25.7987 82.4441 25.9132C82.44 26.0139 82.4639 26.1138 82.5133 26.2018C82.5811 26.2951 82.6744 26.3671 82.782 26.409C82.9623 26.4871 83.1489 26.5496 83.3398 26.596L84.2681 26.8358C84.3821 26.8575 84.5409 26.8995 84.7444 26.9618C84.9585 27.0276 85.1616 27.1249 85.347 27.2503C85.5532 27.3882 85.7291 27.5666 85.8641 27.7746C86.0194 28.027 86.0959 28.3199 86.0839 28.6159C86.0867 28.8847 86.0311 29.1509 85.9211 29.3962C85.8109 29.6387 85.6448 29.8517 85.4366 30.018C85.1944 30.2055 84.9178 30.3436 84.6223 30.4245C84.2638 30.5274 83.8919 30.5768 83.5189 30.5708C83.1878 30.5711 82.858 30.5288 82.5377 30.4448C82.2346 30.3643 81.9499 30.2263 81.699 30.0384C81.456 29.8618 81.258 29.6307 81.1209 29.3637C80.9716 29.0608 80.9002 28.7256 80.9133 28.3883H82.2161C82.2101 28.568 82.2478 28.7465 82.326 28.9085" fill="white"></path><path d="M87.1484 26.1449C87.2761 25.7682 87.4767 25.4202 87.7388 25.1207C88.0002 24.8273 88.3225 24.5944 88.6833 24.438C89.495 24.1073 90.4041 24.1073 91.2157 24.438C91.5761 24.595 91.8983 24.8279 92.1603 25.1207C92.4218 25.4206 92.6224 25.7685 92.7506 26.1449C92.8915 26.5541 92.9617 26.9843 92.9583 27.417C92.961 27.8404 92.8907 28.261 92.7506 28.6606C92.6219 29.0307 92.4213 29.3719 92.1603 29.6645C91.8972 29.953 91.5751 30.1817 91.2157 30.3351C90.403 30.6602 89.496 30.6602 88.6833 30.3351C88.3236 30.1823 88.0013 29.9536 87.7388 29.6645C87.4772 29.3723 87.2766 29.031 87.1484 28.6606C87.0083 28.261 86.9381 27.8404 86.9408 27.417C86.9378 26.9856 87.008 26.5569 87.1484 26.149M88.3698 28.1811C88.4242 28.4082 88.5178 28.6242 88.6467 28.8191C88.7774 29.0139 88.9534 29.1743 89.1597 29.2865C89.4004 29.4021 89.6641 29.4622 89.9312 29.4622C90.1983 29.4622 90.462 29.4021 90.7027 29.2865C90.9088 29.174 91.0847 29.0137 91.2157 28.8191C91.3501 28.6198 91.4479 28.3983 91.5048 28.1648C91.5648 27.9201 91.5948 27.669 91.5944 27.417C91.5952 27.1543 91.5651 26.8924 91.5048 26.6367C91.4491 26.3978 91.3512 26.1707 91.2157 25.9661C91.0855 25.7698 90.9094 25.608 90.7027 25.4946C90.462 25.379 90.1983 25.319 89.9312 25.319C89.6641 25.319 89.4004 25.379 89.1597 25.4946C88.9519 25.6101 88.7757 25.7748 88.6467 25.9742C88.5106 26.1785 88.4126 26.4057 88.3576 26.6448C88.2969 26.9005 88.2669 27.1624 88.268 27.4251C88.2671 27.6771 88.2972 27.9283 88.3576 28.1729" fill="white"></path><path d="M95.2026 30.4408L93.2239 24.3364H94.6L95.9639 28.6282H95.9802L97.3604 24.3364H98.7487L96.7171 30.4408H95.2026Z" fill="white"></path><path d="M99.2112 26.1449C99.3392 25.7684 99.5398 25.4204 99.8016 25.1207C100.064 24.8269 100.388 24.5938 100.75 24.438C101.562 24.1073 102.471 24.1073 103.283 24.438C103.642 24.5952 103.963 24.8281 104.223 25.1207C104.485 25.4206 104.685 25.7685 104.813 26.1449C104.953 26.5544 105.022 26.9845 105.017 27.417C105.021 27.8401 104.952 28.2608 104.813 28.6606C104.685 29.0307 104.484 29.3718 104.223 29.6645C103.961 29.9527 103.641 30.1814 103.283 30.3351C102.47 30.6602 101.563 30.6602 100.75 30.3351C100.389 30.1827 100.065 29.9539 99.8016 29.6645C99.5403 29.3721 99.3397 29.0309 99.2112 28.6606C99.0704 28.2612 99.0002 27.8404 99.0036 27.417C99.0002 26.9856 99.0704 26.5568 99.2112 26.149M100.433 28.1811C100.488 28.4144 100.584 28.6361 100.718 28.8354C100.849 29.0301 101.025 29.1904 101.231 29.3028C101.471 29.4184 101.735 29.4785 102.002 29.4785C102.269 29.4785 102.533 29.4184 102.774 29.3028C102.988 29.1883 103.17 29.022 103.303 28.8191C103.437 28.6198 103.535 28.3983 103.592 28.1648C103.652 27.9201 103.682 27.669 103.682 27.417C103.682 27.1543 103.652 26.8924 103.592 26.6367C103.535 26.4006 103.438 26.1764 103.303 25.9742C103.173 25.7776 102.997 25.6158 102.79 25.5028C102.549 25.3871 102.286 25.3271 102.018 25.3271C101.751 25.3271 101.488 25.3871 101.247 25.5028C101.04 25.6159 100.864 25.7777 100.734 25.9742C100.599 26.1788 100.503 26.406 100.449 26.6448C100.388 26.9005 100.358 27.1624 100.359 27.4251C100.358 27.6771 100.389 27.9283 100.449 28.1729" fill="white"></path></g><defs><clipPath id="clip0_247_474"><rect width="120" height="34.6309" fill="white"></rect></clipPath></defs></svg>